<mxfile host="app.diagrams.net" modified="2024-03-26T10:58:10.947Z" agent="Mozilla/5.0 (Windows NT 10.0; Win64; x64) AppleWebKit/537.36 (KHTML, like Gecko) Chrome/122.0.0.0 Safari/537.36" etag="djzBKtU1-Ecrjwf0WZuA" version="24.1.0" type="github">
  <diagram name="Страница — 1" id="VzalWA2Egsjq6tHP2Xkd">
    <mxGraphModel dx="2175" dy="555" grid="1" gridSize="10" guides="1" tooltips="1" connect="1" arrows="1" fold="1" page="1" pageScale="1" pageWidth="827" pageHeight="1169" math="0" shadow="0">
      <root>
        <mxCell id="0" />
        <mxCell id="1" parent="0" />
        <mxCell id="YkArDoTr-JicF80w-XxJ-16" value="" style="edgeStyle=orthogonalEdgeStyle;rounded=0;orthogonalLoop=1;jettySize=auto;html=1;" parent="1" source="YkArDoTr-JicF80w-XxJ-1" target="YkArDoTr-JicF80w-XxJ-6" edge="1">
          <mxGeometry relative="1" as="geometry" />
        </mxCell>
        <mxCell id="YkArDoTr-JicF80w-XxJ-1" value="" style="rounded=1;whiteSpace=wrap;html=1;" parent="1" vertex="1">
          <mxGeometry x="30" y="10" width="590" height="150" as="geometry" />
        </mxCell>
        <mxCell id="YkArDoTr-JicF80w-XxJ-2" value="Data" style="text;html=1;align=center;verticalAlign=middle;whiteSpace=wrap;rounded=0;" parent="1" vertex="1">
          <mxGeometry x="50" y="30" width="60" height="30" as="geometry" />
        </mxCell>
        <mxCell id="YkArDoTr-JicF80w-XxJ-3" value="" style="rounded=1;whiteSpace=wrap;html=1;" parent="1" vertex="1">
          <mxGeometry x="290" y="20" width="310" height="100" as="geometry" />
        </mxCell>
        <mxCell id="YkArDoTr-JicF80w-XxJ-4" value="APIService" style="rounded=0;whiteSpace=wrap;html=1;" parent="1" vertex="1">
          <mxGeometry x="310" y="30" width="120" height="60" as="geometry" />
        </mxCell>
        <mxCell id="YkArDoTr-JicF80w-XxJ-5" value="ProductModel" style="rounded=0;whiteSpace=wrap;html=1;" parent="1" vertex="1">
          <mxGeometry x="450" y="30" width="120" height="60" as="geometry" />
        </mxCell>
        <mxCell id="YkArDoTr-JicF80w-XxJ-6" value="" style="rounded=1;whiteSpace=wrap;html=1;" parent="1" vertex="1">
          <mxGeometry x="20" y="207.5" width="580" height="232.5" as="geometry" />
        </mxCell>
        <mxCell id="YkArDoTr-JicF80w-XxJ-7" value="Domain" style="text;html=1;align=center;verticalAlign=middle;whiteSpace=wrap;rounded=0;" parent="1" vertex="1">
          <mxGeometry x="40" y="227.5" width="60" height="30" as="geometry" />
        </mxCell>
        <mxCell id="YkArDoTr-JicF80w-XxJ-8" value="ProductRepositoryImpl" style="rounded=1;whiteSpace=wrap;html=1;" parent="1" vertex="1">
          <mxGeometry x="60" y="70" width="140" height="60" as="geometry" />
        </mxCell>
        <mxCell id="YkArDoTr-JicF80w-XxJ-9" style="edgeStyle=orthogonalEdgeStyle;rounded=0;orthogonalLoop=1;jettySize=auto;html=1;entryX=0.008;entryY=0.35;entryDx=0;entryDy=0;entryPerimeter=0;" parent="1" source="YkArDoTr-JicF80w-XxJ-8" target="YkArDoTr-JicF80w-XxJ-3" edge="1">
          <mxGeometry relative="1" as="geometry" />
        </mxCell>
        <mxCell id="YkArDoTr-JicF80w-XxJ-10" value="interface&lt;div&gt;ProductRepository&lt;/div&gt;" style="rounded=1;whiteSpace=wrap;html=1;" parent="1" vertex="1">
          <mxGeometry x="170" y="230" width="120" height="60" as="geometry" />
        </mxCell>
        <mxCell id="YkArDoTr-JicF80w-XxJ-13" style="edgeStyle=orthogonalEdgeStyle;rounded=0;orthogonalLoop=1;jettySize=auto;html=1;entryX=0;entryY=0.5;entryDx=0;entryDy=0;" parent="1" source="YkArDoTr-JicF80w-XxJ-11" target="YkArDoTr-JicF80w-XxJ-10" edge="1">
          <mxGeometry relative="1" as="geometry" />
        </mxCell>
        <mxCell id="YkArDoTr-JicF80w-XxJ-11" value="GetProductUseCase" style="ellipse;whiteSpace=wrap;html=1;" parent="1" vertex="1">
          <mxGeometry x="60" y="325" width="120" height="80" as="geometry" />
        </mxCell>
        <mxCell id="YkArDoTr-JicF80w-XxJ-14" style="edgeStyle=orthogonalEdgeStyle;rounded=0;orthogonalLoop=1;jettySize=auto;html=1;entryX=1;entryY=0.5;entryDx=0;entryDy=0;" parent="1" source="YkArDoTr-JicF80w-XxJ-12" target="YkArDoTr-JicF80w-XxJ-10" edge="1">
          <mxGeometry relative="1" as="geometry" />
        </mxCell>
        <mxCell id="YkArDoTr-JicF80w-XxJ-12" value="GetProductByIdUseCase" style="ellipse;whiteSpace=wrap;html=1;" parent="1" vertex="1">
          <mxGeometry x="290" y="325" width="180" height="80" as="geometry" />
        </mxCell>
        <mxCell id="YkArDoTr-JicF80w-XxJ-17" style="edgeStyle=orthogonalEdgeStyle;rounded=0;orthogonalLoop=1;jettySize=auto;html=1;entryX=1;entryY=0.5;entryDx=0;entryDy=0;" parent="1" source="YkArDoTr-JicF80w-XxJ-15" target="YkArDoTr-JicF80w-XxJ-1" edge="1">
          <mxGeometry relative="1" as="geometry" />
        </mxCell>
        <mxCell id="YkArDoTr-JicF80w-XxJ-18" value="" style="edgeStyle=orthogonalEdgeStyle;rounded=0;orthogonalLoop=1;jettySize=auto;html=1;" parent="1" source="YkArDoTr-JicF80w-XxJ-15" target="YkArDoTr-JicF80w-XxJ-6" edge="1">
          <mxGeometry relative="1" as="geometry" />
        </mxCell>
        <mxCell id="YkArDoTr-JicF80w-XxJ-15" value="" style="rounded=1;whiteSpace=wrap;html=1;" parent="1" vertex="1">
          <mxGeometry x="670" y="197.5" width="440" height="212.5" as="geometry" />
        </mxCell>
        <mxCell id="YkArDoTr-JicF80w-XxJ-19" value="Presentation" style="text;html=1;align=center;verticalAlign=middle;whiteSpace=wrap;rounded=0;" parent="1" vertex="1">
          <mxGeometry x="710" y="217.5" width="60" height="30" as="geometry" />
        </mxCell>
        <mxCell id="YkArDoTr-JicF80w-XxJ-20" value="HomeViewModel" style="rounded=0;whiteSpace=wrap;html=1;" parent="1" vertex="1">
          <mxGeometry x="697" y="287.5" width="120" height="60" as="geometry" />
        </mxCell>
        <mxCell id="YkArDoTr-JicF80w-XxJ-22" value="" style="edgeStyle=orthogonalEdgeStyle;rounded=0;orthogonalLoop=1;jettySize=auto;html=1;" parent="1" source="YkArDoTr-JicF80w-XxJ-21" target="YkArDoTr-JicF80w-XxJ-20" edge="1">
          <mxGeometry relative="1" as="geometry" />
        </mxCell>
        <mxCell id="YkArDoTr-JicF80w-XxJ-21" value="HomeFragment" style="rounded=0;whiteSpace=wrap;html=1;" parent="1" vertex="1">
          <mxGeometry x="920" y="287.5" width="120" height="60" as="geometry" />
        </mxCell>
        <mxCell id="YkArDoTr-JicF80w-XxJ-23" value="Product" style="rounded=0;whiteSpace=wrap;html=1;" parent="1" vertex="1">
          <mxGeometry x="420" y="247.5" width="120" height="60" as="geometry" />
        </mxCell>
        <mxCell id="k2EPodKB6Pk-aMHsN5qQ-1" value="" style="edgeStyle=orthogonalEdgeStyle;rounded=0;orthogonalLoop=1;jettySize=auto;html=1;endArrow=none;endFill=0;" parent="1" source="k2EPodKB6Pk-aMHsN5qQ-2" target="k2EPodKB6Pk-aMHsN5qQ-7" edge="1">
          <mxGeometry relative="1" as="geometry">
            <Array as="points">
              <mxPoint x="1555" y="250" />
              <mxPoint x="1555" y="250" />
            </Array>
          </mxGeometry>
        </mxCell>
        <mxCell id="k2EPodKB6Pk-aMHsN5qQ-2" value="" style="rounded=1;whiteSpace=wrap;html=1;" parent="1" vertex="1">
          <mxGeometry x="1260" y="52.5" width="590" height="147.5" as="geometry" />
        </mxCell>
        <mxCell id="k2EPodKB6Pk-aMHsN5qQ-3" value="Data" style="text;html=1;align=center;verticalAlign=middle;whiteSpace=wrap;rounded=0;" parent="1" vertex="1">
          <mxGeometry x="1280" y="72.5" width="60" height="30" as="geometry" />
        </mxCell>
        <mxCell id="k2EPodKB6Pk-aMHsN5qQ-4" value="" style="rounded=1;whiteSpace=wrap;html=1;" parent="1" vertex="1">
          <mxGeometry x="1520" y="62.5" width="310" height="117.5" as="geometry" />
        </mxCell>
        <mxCell id="k2EPodKB6Pk-aMHsN5qQ-5" value="ProductAPI" style="rounded=0;whiteSpace=wrap;html=1;" parent="1" vertex="1">
          <mxGeometry x="1540" y="72.5" width="120" height="60" as="geometry" />
        </mxCell>
        <mxCell id="k2EPodKB6Pk-aMHsN5qQ-6" value="ProductModel" style="rounded=0;whiteSpace=wrap;html=1;" parent="1" vertex="1">
          <mxGeometry x="1680" y="72.5" width="120" height="60" as="geometry" />
        </mxCell>
        <mxCell id="k2EPodKB6Pk-aMHsN5qQ-24" style="edgeStyle=orthogonalEdgeStyle;rounded=0;orthogonalLoop=1;jettySize=auto;html=1;" parent="1" source="k2EPodKB6Pk-aMHsN5qQ-7" target="k2EPodKB6Pk-aMHsN5qQ-4" edge="1">
          <mxGeometry relative="1" as="geometry">
            <Array as="points">
              <mxPoint x="1675" y="400" />
              <mxPoint x="1675" y="400" />
            </Array>
          </mxGeometry>
        </mxCell>
        <mxCell id="k2EPodKB6Pk-aMHsN5qQ-7" value="" style="rounded=1;whiteSpace=wrap;html=1;" parent="1" vertex="1">
          <mxGeometry x="1241" y="260" width="580" height="230" as="geometry" />
        </mxCell>
        <mxCell id="k2EPodKB6Pk-aMHsN5qQ-8" value="Domain" style="text;html=1;align=center;verticalAlign=middle;whiteSpace=wrap;rounded=0;" parent="1" vertex="1">
          <mxGeometry x="1271" y="267.5" width="60" height="30" as="geometry" />
        </mxCell>
        <mxCell id="k2EPodKB6Pk-aMHsN5qQ-9" value="ProductRepositoryImpl" style="rounded=1;whiteSpace=wrap;html=1;" parent="1" vertex="1">
          <mxGeometry x="1290" y="112.5" width="140" height="60" as="geometry" />
        </mxCell>
        <mxCell id="k2EPodKB6Pk-aMHsN5qQ-10" style="edgeStyle=orthogonalEdgeStyle;rounded=0;orthogonalLoop=1;jettySize=auto;html=1;entryX=0.008;entryY=0.35;entryDx=0;entryDy=0;entryPerimeter=0;" parent="1" source="k2EPodKB6Pk-aMHsN5qQ-9" target="k2EPodKB6Pk-aMHsN5qQ-4" edge="1">
          <mxGeometry relative="1" as="geometry" />
        </mxCell>
        <mxCell id="k2EPodKB6Pk-aMHsN5qQ-11" value="interface&lt;div&gt;ProductRepository&lt;/div&gt;" style="rounded=1;whiteSpace=wrap;html=1;" parent="1" vertex="1">
          <mxGeometry x="1441" y="287.5" width="120" height="60" as="geometry" />
        </mxCell>
        <mxCell id="k2EPodKB6Pk-aMHsN5qQ-12" style="edgeStyle=orthogonalEdgeStyle;rounded=0;orthogonalLoop=1;jettySize=auto;html=1;entryX=0;entryY=0.5;entryDx=0;entryDy=0;" parent="1" source="k2EPodKB6Pk-aMHsN5qQ-13" target="k2EPodKB6Pk-aMHsN5qQ-11" edge="1">
          <mxGeometry relative="1" as="geometry" />
        </mxCell>
        <mxCell id="k2EPodKB6Pk-aMHsN5qQ-13" value="GetProductUseCase" style="ellipse;whiteSpace=wrap;html=1;" parent="1" vertex="1">
          <mxGeometry x="1331" y="382.5" width="120" height="80" as="geometry" />
        </mxCell>
        <mxCell id="k2EPodKB6Pk-aMHsN5qQ-14" style="edgeStyle=orthogonalEdgeStyle;rounded=0;orthogonalLoop=1;jettySize=auto;html=1;entryX=1;entryY=0.5;entryDx=0;entryDy=0;" parent="1" source="k2EPodKB6Pk-aMHsN5qQ-15" target="k2EPodKB6Pk-aMHsN5qQ-11" edge="1">
          <mxGeometry relative="1" as="geometry" />
        </mxCell>
        <mxCell id="k2EPodKB6Pk-aMHsN5qQ-15" value="GetProductByIdUseCase" style="ellipse;whiteSpace=wrap;html=1;" parent="1" vertex="1">
          <mxGeometry x="1561" y="382.5" width="180" height="80" as="geometry" />
        </mxCell>
        <mxCell id="k2EPodKB6Pk-aMHsN5qQ-16" style="edgeStyle=orthogonalEdgeStyle;rounded=0;orthogonalLoop=1;jettySize=auto;html=1;entryX=1;entryY=0.5;entryDx=0;entryDy=0;" parent="1" source="k2EPodKB6Pk-aMHsN5qQ-18" target="k2EPodKB6Pk-aMHsN5qQ-2" edge="1">
          <mxGeometry relative="1" as="geometry" />
        </mxCell>
        <mxCell id="k2EPodKB6Pk-aMHsN5qQ-17" value="" style="edgeStyle=orthogonalEdgeStyle;rounded=0;orthogonalLoop=1;jettySize=auto;html=1;" parent="1" source="k2EPodKB6Pk-aMHsN5qQ-18" target="k2EPodKB6Pk-aMHsN5qQ-7" edge="1">
          <mxGeometry relative="1" as="geometry" />
        </mxCell>
        <mxCell id="k2EPodKB6Pk-aMHsN5qQ-25" style="edgeStyle=orthogonalEdgeStyle;rounded=0;orthogonalLoop=1;jettySize=auto;html=1;exitX=0.043;exitY=0.148;exitDx=0;exitDy=0;exitPerimeter=0;" parent="1" source="k2EPodKB6Pk-aMHsN5qQ-18" edge="1">
          <mxGeometry relative="1" as="geometry">
            <Array as="points">
              <mxPoint x="1900" y="300" />
              <mxPoint x="1900" y="100" />
            </Array>
            <mxPoint x="1830" y="100" as="targetPoint" />
          </mxGeometry>
        </mxCell>
        <mxCell id="k2EPodKB6Pk-aMHsN5qQ-18" value="" style="rounded=1;whiteSpace=wrap;html=1;" parent="1" vertex="1">
          <mxGeometry x="1891" y="247.5" width="440" height="172.5" as="geometry" />
        </mxCell>
        <mxCell id="k2EPodKB6Pk-aMHsN5qQ-19" value="Presentation" style="text;html=1;align=center;verticalAlign=middle;whiteSpace=wrap;rounded=0;" parent="1" vertex="1">
          <mxGeometry x="1931" y="267.5" width="60" height="30" as="geometry" />
        </mxCell>
        <mxCell id="k2EPodKB6Pk-aMHsN5qQ-20" value="HomeViewModel" style="rounded=0;whiteSpace=wrap;html=1;" parent="1" vertex="1">
          <mxGeometry x="1970" y="330" width="120" height="60" as="geometry" />
        </mxCell>
        <mxCell id="k2EPodKB6Pk-aMHsN5qQ-21" value="" style="edgeStyle=orthogonalEdgeStyle;rounded=0;orthogonalLoop=1;jettySize=auto;html=1;" parent="1" source="k2EPodKB6Pk-aMHsN5qQ-22" target="k2EPodKB6Pk-aMHsN5qQ-20" edge="1">
          <mxGeometry relative="1" as="geometry" />
        </mxCell>
        <mxCell id="k2EPodKB6Pk-aMHsN5qQ-22" value="HomeFragment" style="rounded=0;whiteSpace=wrap;html=1;" parent="1" vertex="1">
          <mxGeometry x="2140" y="330" width="120" height="60" as="geometry" />
        </mxCell>
        <mxCell id="k2EPodKB6Pk-aMHsN5qQ-38" style="edgeStyle=orthogonalEdgeStyle;rounded=0;orthogonalLoop=1;jettySize=auto;html=1;entryX=0;entryY=0.5;entryDx=0;entryDy=0;dashed=1;dashPattern=12 12;" parent="1" source="k2EPodKB6Pk-aMHsN5qQ-26" target="k2EPodKB6Pk-aMHsN5qQ-31" edge="1">
          <mxGeometry relative="1" as="geometry" />
        </mxCell>
        <mxCell id="k2EPodKB6Pk-aMHsN5qQ-39" value="" style="edgeStyle=orthogonalEdgeStyle;rounded=0;orthogonalLoop=1;jettySize=auto;html=1;endArrow=classic;endFill=1;dashed=1;dashPattern=8 8;" parent="1" source="k2EPodKB6Pk-aMHsN5qQ-26" target="k2EPodKB6Pk-aMHsN5qQ-34" edge="1">
          <mxGeometry relative="1" as="geometry">
            <mxPoint x="476" y="1362.5" as="targetPoint" />
            <Array as="points">
              <mxPoint x="475" y="1432.5" />
              <mxPoint x="476" y="1432.5" />
            </Array>
          </mxGeometry>
        </mxCell>
        <mxCell id="k2EPodKB6Pk-aMHsN5qQ-26" value="ProductConverter" style="swimlane;fontStyle=1;align=center;verticalAlign=top;childLayout=stackLayout;horizontal=1;startSize=26;horizontalStack=0;resizeParent=1;resizeParentMax=0;resizeLast=0;collapsible=1;marginBottom=0;whiteSpace=wrap;html=1;" parent="1" vertex="1">
          <mxGeometry x="355" y="1442.5" width="190" height="60" as="geometry" />
        </mxCell>
        <mxCell id="k2EPodKB6Pk-aMHsN5qQ-28" value="" style="line;strokeWidth=1;fillColor=none;align=left;verticalAlign=middle;spacingTop=-1;spacingLeft=3;spacingRight=3;rotatable=0;labelPosition=right;points=[];portConstraint=eastwest;strokeColor=inherit;" parent="k2EPodKB6Pk-aMHsN5qQ-26" vertex="1">
          <mxGeometry y="26" width="190" height="8" as="geometry" />
        </mxCell>
        <mxCell id="k2EPodKB6Pk-aMHsN5qQ-29" value="+ convert(ProductModel): Product" style="text;strokeColor=none;fillColor=none;align=left;verticalAlign=top;spacingLeft=4;spacingRight=4;overflow=hidden;rotatable=0;points=[[0,0.5],[1,0.5]];portConstraint=eastwest;whiteSpace=wrap;html=1;" parent="k2EPodKB6Pk-aMHsN5qQ-26" vertex="1">
          <mxGeometry y="34" width="190" height="26" as="geometry" />
        </mxCell>
        <mxCell id="k2EPodKB6Pk-aMHsN5qQ-30" value="ProductModel" style="swimlane;fontStyle=1;align=center;verticalAlign=top;childLayout=stackLayout;horizontal=1;startSize=26;horizontalStack=0;resizeParent=1;resizeParentMax=0;resizeLast=0;collapsible=1;marginBottom=0;whiteSpace=wrap;html=1;" parent="1" vertex="1">
          <mxGeometry x="590" y="1442.5" width="180" height="208" as="geometry" />
        </mxCell>
        <mxCell id="k2EPodKB6Pk-aMHsN5qQ-31" value="&lt;div&gt;+ id: String&lt;/div&gt;&lt;div&gt;&lt;span style=&quot;background-color: initial;&quot;&gt;+&lt;/span&gt;&lt;span style=&quot;background-color: initial;&quot;&gt;&amp;nbsp;&lt;/span&gt;&lt;span style=&quot;background-color: initial;&quot;&gt;title: String&lt;/span&gt;&lt;/div&gt;&lt;div&gt;&lt;span style=&quot;background-color: initial;&quot;&gt;+&lt;/span&gt;&lt;span style=&quot;background-color: initial;&quot;&gt;&amp;nbsp;&lt;/span&gt;&lt;span style=&quot;background-color: initial;&quot;&gt;description: String&lt;/span&gt;&lt;/div&gt;&lt;div&gt;&lt;span style=&quot;background-color: initial;&quot;&gt;+ thumbnail: String&lt;/span&gt;&lt;/div&gt;&lt;div&gt;&lt;span style=&quot;background-color: initial;&quot;&gt;+&lt;/span&gt;&lt;span style=&quot;background-color: initial;&quot;&gt;&amp;nbsp;&lt;/span&gt;images : List&amp;lt;String&amp;gt;&lt;/div&gt;&lt;div&gt;&lt;span style=&quot;background-color: initial;&quot;&gt;+&lt;/span&gt;&lt;span style=&quot;background-color: initial;&quot;&gt;&amp;nbsp;&lt;/span&gt;brand : String&lt;/div&gt;&lt;div&gt;&lt;span style=&quot;background-color: initial;&quot;&gt;+&lt;/span&gt;&lt;span style=&quot;background-color: initial;&quot;&gt;&amp;nbsp;&lt;/span&gt;rating : String&lt;/div&gt;&lt;div&gt;&lt;span style=&quot;background-color: initial;&quot;&gt;+&lt;/span&gt;&lt;span style=&quot;background-color: initial;&quot;&gt;&amp;nbsp;&lt;/span&gt;stock : String&lt;/div&gt;&lt;div&gt;&lt;span style=&quot;background-color: initial;&quot;&gt;+&lt;/span&gt;&lt;span style=&quot;background-color: initial;&quot;&gt;&amp;nbsp;&lt;/span&gt;category: String&lt;/div&gt;&lt;div&gt;&lt;span style=&quot;background-color: initial;&quot;&gt;+&lt;/span&gt;&lt;span style=&quot;background-color: initial;&quot;&gt;&amp;nbsp;&lt;/span&gt;price : String&lt;/div&gt;&lt;div&gt;&lt;span style=&quot;background-color: initial;&quot;&gt;+&lt;/span&gt;&lt;span style=&quot;background-color: initial;&quot;&gt;&amp;nbsp;&lt;/span&gt;discountPercentage : String&lt;/div&gt;&lt;div&gt;&lt;br&gt;&lt;/div&gt;" style="text;strokeColor=none;fillColor=none;align=left;verticalAlign=top;spacingLeft=4;spacingRight=4;overflow=hidden;rotatable=0;points=[[0,0.5],[1,0.5]];portConstraint=eastwest;whiteSpace=wrap;html=1;" parent="k2EPodKB6Pk-aMHsN5qQ-30" vertex="1">
          <mxGeometry y="26" width="180" height="174" as="geometry" />
        </mxCell>
        <mxCell id="k2EPodKB6Pk-aMHsN5qQ-32" value="" style="line;strokeWidth=1;fillColor=none;align=left;verticalAlign=middle;spacingTop=-1;spacingLeft=3;spacingRight=3;rotatable=0;labelPosition=right;points=[];portConstraint=eastwest;strokeColor=inherit;" parent="k2EPodKB6Pk-aMHsN5qQ-30" vertex="1">
          <mxGeometry y="200" width="180" height="8" as="geometry" />
        </mxCell>
        <mxCell id="k2EPodKB6Pk-aMHsN5qQ-34" value="Product" style="swimlane;fontStyle=1;align=center;verticalAlign=top;childLayout=stackLayout;horizontal=1;startSize=26;horizontalStack=0;resizeParent=1;resizeParentMax=0;resizeLast=0;collapsible=1;marginBottom=0;whiteSpace=wrap;html=1;" parent="1" vertex="1">
          <mxGeometry x="360" y="1160" width="210" height="188" as="geometry" />
        </mxCell>
        <mxCell id="k2EPodKB6Pk-aMHsN5qQ-35" value="&lt;div&gt;+ id: String&lt;/div&gt;&lt;div&gt;&lt;span style=&quot;background-color: initial;&quot;&gt;+&lt;/span&gt;&lt;span style=&quot;background-color: initial;&quot;&gt;&amp;nbsp;&lt;/span&gt;&lt;span style=&quot;background-color: initial;&quot;&gt;title: String&lt;/span&gt;&lt;/div&gt;&lt;div&gt;&lt;span style=&quot;background-color: initial;&quot;&gt;+&lt;/span&gt;&lt;span style=&quot;background-color: initial;&quot;&gt;&amp;nbsp;&lt;/span&gt;&lt;span style=&quot;background-color: initial;&quot;&gt;description: String&lt;/span&gt;&lt;/div&gt;&lt;div&gt;&lt;span style=&quot;background-color: initial;&quot;&gt;+&lt;/span&gt;&lt;span style=&quot;background-color: initial;&quot;&gt;&amp;nbsp;&lt;/span&gt;images : List&amp;lt;String&amp;gt;&lt;/div&gt;&lt;div&gt;&lt;span style=&quot;background-color: initial;&quot;&gt;+&lt;/span&gt;&lt;span style=&quot;background-color: initial;&quot;&gt;&amp;nbsp;&lt;/span&gt;brand : String&lt;/div&gt;&lt;div&gt;&lt;span style=&quot;background-color: initial;&quot;&gt;+&lt;/span&gt;&lt;span style=&quot;background-color: initial;&quot;&gt;&amp;nbsp;&lt;/span&gt;rating : String&lt;/div&gt;&lt;div&gt;&lt;span style=&quot;background-color: initial;&quot;&gt;+&lt;/span&gt;&lt;span style=&quot;background-color: initial;&quot;&gt;&amp;nbsp;&lt;/span&gt;stock : String&lt;/div&gt;&lt;div&gt;&lt;span style=&quot;background-color: initial;&quot;&gt;+&lt;/span&gt;&lt;span style=&quot;background-color: initial;&quot;&gt;&amp;nbsp;&lt;/span&gt;category: String&lt;/div&gt;&lt;div&gt;&lt;span style=&quot;background-color: initial;&quot;&gt;+&lt;/span&gt;&lt;span style=&quot;background-color: initial;&quot;&gt;&amp;nbsp;&lt;/span&gt;price : String&lt;/div&gt;&lt;div&gt;&lt;span style=&quot;background-color: initial;&quot;&gt;+&lt;/span&gt;&lt;span style=&quot;background-color: initial;&quot;&gt;&amp;nbsp;&lt;/span&gt;discountPercentage : String&lt;/div&gt;&lt;div&gt;&lt;br&gt;&lt;/div&gt;" style="text;strokeColor=none;fillColor=none;align=left;verticalAlign=top;spacingLeft=4;spacingRight=4;overflow=hidden;rotatable=0;points=[[0,0.5],[1,0.5]];portConstraint=eastwest;whiteSpace=wrap;html=1;" parent="k2EPodKB6Pk-aMHsN5qQ-34" vertex="1">
          <mxGeometry y="26" width="210" height="154" as="geometry" />
        </mxCell>
        <mxCell id="k2EPodKB6Pk-aMHsN5qQ-36" value="" style="line;strokeWidth=1;fillColor=none;align=left;verticalAlign=middle;spacingTop=-1;spacingLeft=3;spacingRight=3;rotatable=0;labelPosition=right;points=[];portConstraint=eastwest;strokeColor=inherit;" parent="k2EPodKB6Pk-aMHsN5qQ-34" vertex="1">
          <mxGeometry y="180" width="210" height="8" as="geometry" />
        </mxCell>
        <mxCell id="k2EPodKB6Pk-aMHsN5qQ-65" style="edgeStyle=orthogonalEdgeStyle;rounded=0;orthogonalLoop=1;jettySize=auto;html=1;endArrow=classic;endFill=1;dashed=1;dashPattern=8 8;" parent="1" source="k2EPodKB6Pk-aMHsN5qQ-46" target="k2EPodKB6Pk-aMHsN5qQ-60" edge="1">
          <mxGeometry relative="1" as="geometry" />
        </mxCell>
        <mxCell id="k2EPodKB6Pk-aMHsN5qQ-46" value="ProductAPI" style="swimlane;fontStyle=1;align=center;verticalAlign=top;childLayout=stackLayout;horizontal=1;startSize=26;horizontalStack=0;resizeParent=1;resizeParentMax=0;resizeLast=0;collapsible=1;marginBottom=0;whiteSpace=wrap;html=1;" parent="1" vertex="1">
          <mxGeometry x="70" y="1640" width="210" height="86" as="geometry" />
        </mxCell>
        <mxCell id="k2EPodKB6Pk-aMHsN5qQ-47" value="+ field: type" style="text;strokeColor=none;fillColor=none;align=left;verticalAlign=top;spacingLeft=4;spacingRight=4;overflow=hidden;rotatable=0;points=[[0,0.5],[1,0.5]];portConstraint=eastwest;whiteSpace=wrap;html=1;" parent="k2EPodKB6Pk-aMHsN5qQ-46" vertex="1">
          <mxGeometry y="26" width="210" height="26" as="geometry" />
        </mxCell>
        <mxCell id="k2EPodKB6Pk-aMHsN5qQ-48" value="" style="line;strokeWidth=1;fillColor=none;align=left;verticalAlign=middle;spacingTop=-1;spacingLeft=3;spacingRight=3;rotatable=0;labelPosition=right;points=[];portConstraint=eastwest;strokeColor=inherit;" parent="k2EPodKB6Pk-aMHsN5qQ-46" vertex="1">
          <mxGeometry y="52" width="210" height="8" as="geometry" />
        </mxCell>
        <mxCell id="k2EPodKB6Pk-aMHsN5qQ-49" value="+ getProducts(): ProductResponse" style="text;strokeColor=none;fillColor=none;align=left;verticalAlign=top;spacingLeft=4;spacingRight=4;overflow=hidden;rotatable=0;points=[[0,0.5],[1,0.5]];portConstraint=eastwest;whiteSpace=wrap;html=1;" parent="k2EPodKB6Pk-aMHsN5qQ-46" vertex="1">
          <mxGeometry y="60" width="210" height="26" as="geometry" />
        </mxCell>
        <mxCell id="k2EPodKB6Pk-aMHsN5qQ-55" style="edgeStyle=orthogonalEdgeStyle;rounded=0;orthogonalLoop=1;jettySize=auto;html=1;entryX=0;entryY=0.5;entryDx=0;entryDy=0;" parent="1" source="k2EPodKB6Pk-aMHsN5qQ-51" target="k2EPodKB6Pk-aMHsN5qQ-26" edge="1">
          <mxGeometry relative="1" as="geometry" />
        </mxCell>
        <mxCell id="k2EPodKB6Pk-aMHsN5qQ-69" style="edgeStyle=orthogonalEdgeStyle;rounded=0;orthogonalLoop=1;jettySize=auto;html=1;endArrow=classic;endFill=1;dashed=1;dashPattern=8 8;" parent="1" source="k2EPodKB6Pk-aMHsN5qQ-51" target="k2EPodKB6Pk-aMHsN5qQ-35" edge="1">
          <mxGeometry relative="1" as="geometry" />
        </mxCell>
        <mxCell id="k2EPodKB6Pk-aMHsN5qQ-70" value="" style="edgeStyle=orthogonalEdgeStyle;rounded=0;orthogonalLoop=1;jettySize=auto;html=1;" parent="1" source="k2EPodKB6Pk-aMHsN5qQ-51" target="k2EPodKB6Pk-aMHsN5qQ-56" edge="1">
          <mxGeometry relative="1" as="geometry">
            <Array as="points">
              <mxPoint x="175" y="1532.5" />
              <mxPoint x="175" y="1532.5" />
            </Array>
          </mxGeometry>
        </mxCell>
        <mxCell id="k2EPodKB6Pk-aMHsN5qQ-75" value="" style="edgeStyle=orthogonalEdgeStyle;rounded=0;orthogonalLoop=1;jettySize=auto;html=1;dashed=1;dashPattern=8 8;endArrow=block;endFill=0;" parent="1" source="k2EPodKB6Pk-aMHsN5qQ-51" target="k2EPodKB6Pk-aMHsN5qQ-71" edge="1">
          <mxGeometry relative="1" as="geometry" />
        </mxCell>
        <mxCell id="k2EPodKB6Pk-aMHsN5qQ-51" value="&lt;div&gt;&lt;span style=&quot;background-color: initial;&quot;&gt;ProductRepositoryImpl&lt;/span&gt;&lt;br&gt;&lt;/div&gt;" style="swimlane;fontStyle=1;align=center;verticalAlign=top;childLayout=stackLayout;horizontal=1;startSize=28;horizontalStack=0;resizeParent=1;resizeParentMax=0;resizeLast=0;collapsible=1;marginBottom=0;whiteSpace=wrap;html=1;" parent="1" vertex="1">
          <mxGeometry x="80" y="1422.5" width="200" height="62" as="geometry" />
        </mxCell>
        <mxCell id="k2EPodKB6Pk-aMHsN5qQ-53" value="" style="line;strokeWidth=1;fillColor=none;align=left;verticalAlign=middle;spacingTop=-1;spacingLeft=3;spacingRight=3;rotatable=0;labelPosition=right;points=[];portConstraint=eastwest;strokeColor=inherit;" parent="k2EPodKB6Pk-aMHsN5qQ-51" vertex="1">
          <mxGeometry y="28" width="200" height="8" as="geometry" />
        </mxCell>
        <mxCell id="k2EPodKB6Pk-aMHsN5qQ-54" value="+ getProducts(): List&amp;lt;Product&amp;gt;" style="text;strokeColor=none;fillColor=none;align=left;verticalAlign=top;spacingLeft=4;spacingRight=4;overflow=hidden;rotatable=0;points=[[0,0.5],[1,0.5]];portConstraint=eastwest;whiteSpace=wrap;html=1;" parent="k2EPodKB6Pk-aMHsN5qQ-51" vertex="1">
          <mxGeometry y="36" width="200" height="26" as="geometry" />
        </mxCell>
        <mxCell id="k2EPodKB6Pk-aMHsN5qQ-67" style="edgeStyle=orthogonalEdgeStyle;rounded=0;orthogonalLoop=1;jettySize=auto;html=1;entryX=-0.001;entryY=0.616;entryDx=0;entryDy=0;entryPerimeter=0;endArrow=classic;endFill=1;dashed=1;dashPattern=8 8;" parent="1" source="k2EPodKB6Pk-aMHsN5qQ-56" target="k2EPodKB6Pk-aMHsN5qQ-31" edge="1">
          <mxGeometry relative="1" as="geometry" />
        </mxCell>
        <mxCell id="k2EPodKB6Pk-aMHsN5qQ-68" style="edgeStyle=orthogonalEdgeStyle;rounded=0;orthogonalLoop=1;jettySize=auto;html=1;dashed=1;dashPattern=8 8;endArrow=block;endFill=0;" parent="1" source="k2EPodKB6Pk-aMHsN5qQ-56" target="k2EPodKB6Pk-aMHsN5qQ-46" edge="1">
          <mxGeometry relative="1" as="geometry" />
        </mxCell>
        <mxCell id="k2EPodKB6Pk-aMHsN5qQ-56" value="Retrofit" style="swimlane;fontStyle=1;align=center;verticalAlign=top;childLayout=stackLayout;horizontal=1;startSize=26;horizontalStack=0;resizeParent=1;resizeParentMax=0;resizeLast=0;collapsible=1;marginBottom=0;whiteSpace=wrap;html=1;" parent="1" vertex="1">
          <mxGeometry x="70" y="1551.5" width="210" height="60" as="geometry" />
        </mxCell>
        <mxCell id="k2EPodKB6Pk-aMHsN5qQ-58" value="" style="line;strokeWidth=1;fillColor=none;align=left;verticalAlign=middle;spacingTop=-1;spacingLeft=3;spacingRight=3;rotatable=0;labelPosition=right;points=[];portConstraint=eastwest;strokeColor=inherit;" parent="k2EPodKB6Pk-aMHsN5qQ-56" vertex="1">
          <mxGeometry y="26" width="210" height="8" as="geometry" />
        </mxCell>
        <mxCell id="k2EPodKB6Pk-aMHsN5qQ-59" value="+ getProducts(): List&amp;lt;ProductModel&amp;gt;" style="text;strokeColor=none;fillColor=none;align=left;verticalAlign=top;spacingLeft=4;spacingRight=4;overflow=hidden;rotatable=0;points=[[0,0.5],[1,0.5]];portConstraint=eastwest;whiteSpace=wrap;html=1;" parent="k2EPodKB6Pk-aMHsN5qQ-56" vertex="1">
          <mxGeometry y="34" width="210" height="26" as="geometry" />
        </mxCell>
        <mxCell id="k2EPodKB6Pk-aMHsN5qQ-60" value="ProductResponse" style="swimlane;fontStyle=1;align=center;verticalAlign=top;childLayout=stackLayout;horizontal=1;startSize=26;horizontalStack=0;resizeParent=1;resizeParentMax=0;resizeLast=0;collapsible=1;marginBottom=0;whiteSpace=wrap;html=1;" parent="1" vertex="1">
          <mxGeometry x="320" y="1632.5" width="190" height="60" as="geometry" />
        </mxCell>
        <mxCell id="k2EPodKB6Pk-aMHsN5qQ-61" value="+ products: List&amp;lt;ProductModel&amp;gt;" style="text;strokeColor=none;fillColor=none;align=left;verticalAlign=top;spacingLeft=4;spacingRight=4;overflow=hidden;rotatable=0;points=[[0,0.5],[1,0.5]];portConstraint=eastwest;whiteSpace=wrap;html=1;" parent="k2EPodKB6Pk-aMHsN5qQ-60" vertex="1">
          <mxGeometry y="26" width="190" height="26" as="geometry" />
        </mxCell>
        <mxCell id="k2EPodKB6Pk-aMHsN5qQ-62" value="" style="line;strokeWidth=1;fillColor=none;align=left;verticalAlign=middle;spacingTop=-1;spacingLeft=3;spacingRight=3;rotatable=0;labelPosition=right;points=[];portConstraint=eastwest;strokeColor=inherit;" parent="k2EPodKB6Pk-aMHsN5qQ-60" vertex="1">
          <mxGeometry y="52" width="190" height="8" as="geometry" />
        </mxCell>
        <mxCell id="k2EPodKB6Pk-aMHsN5qQ-64" style="edgeStyle=orthogonalEdgeStyle;rounded=0;orthogonalLoop=1;jettySize=auto;html=1;entryX=0.005;entryY=0.705;entryDx=0;entryDy=0;entryPerimeter=0;" parent="1" source="k2EPodKB6Pk-aMHsN5qQ-60" target="k2EPodKB6Pk-aMHsN5qQ-31" edge="1">
          <mxGeometry relative="1" as="geometry" />
        </mxCell>
        <mxCell id="k2EPodKB6Pk-aMHsN5qQ-66" style="edgeStyle=orthogonalEdgeStyle;rounded=0;orthogonalLoop=1;jettySize=auto;html=1;entryX=0.209;entryY=-0.007;entryDx=0;entryDy=0;entryPerimeter=0;dashed=1;dashPattern=8 8;" parent="1" source="k2EPodKB6Pk-aMHsN5qQ-56" target="k2EPodKB6Pk-aMHsN5qQ-60" edge="1">
          <mxGeometry relative="1" as="geometry">
            <Array as="points">
              <mxPoint x="360" y="1592.5" />
            </Array>
          </mxGeometry>
        </mxCell>
        <mxCell id="k2EPodKB6Pk-aMHsN5qQ-71" value="&lt;div&gt;&amp;lt;&amp;lt;interface&amp;gt;&amp;gt;&lt;/div&gt;ProductRepository" style="swimlane;fontStyle=1;align=center;verticalAlign=top;childLayout=stackLayout;horizontal=1;startSize=36;horizontalStack=0;resizeParent=1;resizeParentMax=0;resizeLast=0;collapsible=1;marginBottom=0;whiteSpace=wrap;html=1;" parent="1" vertex="1">
          <mxGeometry x="-220" y="1551.5" width="200" height="70" as="geometry" />
        </mxCell>
        <mxCell id="k2EPodKB6Pk-aMHsN5qQ-73" value="" style="line;strokeWidth=1;fillColor=none;align=left;verticalAlign=middle;spacingTop=-1;spacingLeft=3;spacingRight=3;rotatable=0;labelPosition=right;points=[];portConstraint=eastwest;strokeColor=inherit;" parent="k2EPodKB6Pk-aMHsN5qQ-71" vertex="1">
          <mxGeometry y="36" width="200" height="8" as="geometry" />
        </mxCell>
        <mxCell id="k2EPodKB6Pk-aMHsN5qQ-74" value="+ getProducts(): List&amp;lt;Products&amp;gt;" style="text;strokeColor=none;fillColor=none;align=left;verticalAlign=top;spacingLeft=4;spacingRight=4;overflow=hidden;rotatable=0;points=[[0,0.5],[1,0.5]];portConstraint=eastwest;whiteSpace=wrap;html=1;" parent="k2EPodKB6Pk-aMHsN5qQ-71" vertex="1">
          <mxGeometry y="44" width="200" height="26" as="geometry" />
        </mxCell>
        <mxCell id="Qus589cFkpPoPS8G4p2P-1" value="remote" style="text;html=1;align=center;verticalAlign=middle;whiteSpace=wrap;rounded=0;" vertex="1" parent="1">
          <mxGeometry x="1530" y="150" width="60" height="30" as="geometry" />
        </mxCell>
      </root>
    </mxGraphModel>
  </diagram>
</mxfile>
